<mxfile host="app.diagrams.net" modified="2021-10-25T08:21:11.990Z" agent="5.0 (Macintosh; Intel Mac OS X 10_15_7) AppleWebKit/537.36 (KHTML, like Gecko) Chrome/95.0.4638.54 Safari/537.36" etag="HI4LE_2ytvaMwKhgZVou" version="15.0.2" type="github">
  <diagram id="C5RBs43oDa-KdzZeNtuy" name="Page-1">
    <mxGraphModel dx="2066" dy="1129" grid="0" gridSize="10" guides="1" tooltips="1" connect="1" arrows="1" fold="1" page="0" pageScale="1" pageWidth="827" pageHeight="1169" math="0" shadow="0">
      <root>
        <mxCell id="WIyWlLk6GJQsqaUBKTNV-0" />
        <mxCell id="WIyWlLk6GJQsqaUBKTNV-1" parent="WIyWlLk6GJQsqaUBKTNV-0" />
        <mxCell id="Kv1s1DoFGhq15PUiS8-T-19" value="&lt;font style=&quot;font-size: 24px&quot; color=&quot;#4d4d4d&quot;&gt;业务&lt;/font&gt;" style="whiteSpace=wrap;html=1;shadow=1;glass=0;fillColor=#AFE0F0;strokeWidth=2;rounded=1;" vertex="1" parent="WIyWlLk6GJQsqaUBKTNV-1">
          <mxGeometry x="197" y="292" width="120" height="60" as="geometry" />
        </mxCell>
        <mxCell id="Kv1s1DoFGhq15PUiS8-T-21" value="是否走订单系统" style="rhombus;whiteSpace=wrap;html=1;rounded=0;strokeColor=#b46504;strokeWidth=2;fillColor=#fad7ac;" vertex="1" parent="WIyWlLk6GJQsqaUBKTNV-1">
          <mxGeometry x="197" y="381" width="120" height="129" as="geometry" />
        </mxCell>
      </root>
    </mxGraphModel>
  </diagram>
</mxfile>
